<?xml version="1.0" encoding="utf-8"?>
<!-- Generator: Adobe Illustrator 21.1.0, SVG Export Plug-In . SVG Version: 6.00 Build 0)  -->
<svg version="1.1" id="Layer_1" xmlns="http://www.w3.org/2000/svg" xmlns:xlink="http://www.w3.org/1999/xlink" x="0px" y="0px"
	 viewBox="0 0 377.1 149.5" style="enable-background:new 0 0 377.1 149.5;" xml:space="preserve">
<style type="text/css">
	.st0{fill:#FFB47D;}
	.st1{fill:#FF9164;}
	.st2{fill:#FF7D5A;}
	.st3{fill:#EDEDEE;}
	.st4{fill:#504B5A;}
	.st5{fill:#DCDBDE;}
	.st6{fill:#625D6B;}
	.st7{fill:#FF6464;}
</style>
<path class="st0" d="M305.9,66.6c-8.3-5.1-35.2-11.7-73-11.7l-19.9-23.3c-4.2-4.9-10.3-7.7-16.8-7.7h-59.7c-6.3,0-12.5,2.3-17.3,6.4
	L95.6,50.4L70.4,54c-3.6,0.5-6.5,3.1-7.3,6.6l-3,11.9l66.4,31h186v-25C312.6,73.6,310,69.1,305.9,66.6z"/>
<path class="st1" d="M312.6,81.4c0-8.9-13.3-17.7-75.3-17.7H64.6c-2.4,0-4.4,2-4.4,4.4v26.6l84.1,13.3h168.3L312.6,81.4L312.6,81.4z
	"/>
<path class="st2" d="M312.6,99.1H104.9l-39.4-8.8c-2.4-0.5-4.8,1-5.3,3.4c-0.5,2.4,1,4.8,3.4,5.3l39.9,8.9c0.3,0.1,0.6,0.1,1,0.1
	h208.2c2.4,0,4.4-2,4.4-4.4C317,101.1,315,99.1,312.6,99.1z"/>
<circle class="st3" cx="272.7" cy="99.1" r="22.1"/>
<path class="st4" d="M272.7,125.7c-14.7,0-26.6-11.9-26.6-26.6s11.9-26.6,26.6-26.6c14.7,0,26.6,11.9,26.6,26.6
	S287.4,125.7,272.7,125.7z M272.7,81.4c-9.8,0-17.7,7.9-17.7,17.7s7.9,17.7,17.7,17.7c9.8,0,17.7-7.9,17.7-17.7
	C290.4,89.4,282.5,81.4,272.7,81.4z"/>
<circle class="st5" cx="272.7" cy="99.1" r="8.9"/>
<circle class="st3" cx="104.4" cy="99.1" r="22.1"/>
<path class="st4" d="M104.4,125.7c-14.7,0-26.6-11.9-26.6-26.6s11.9-26.6,26.6-26.6S131,84.5,131,99.1
	C131,113.8,119.1,125.7,104.4,125.7z M104.4,81.4c-9.8,0-17.7,7.9-17.7,17.7s7.9,17.7,17.7,17.7s17.7-7.9,17.7-17.7
	C122.1,89.4,114.2,81.4,104.4,81.4z"/>
<circle class="st5" cx="104.4" cy="99.1" r="8.9"/>
<g>
	<path class="st2" d="M237.3,90.3h-93c-2.4,0-4.4-2-4.4-4.4l0,0c0-2.4,2-4.4,4.4-4.4h93c2.4,0,4.4,2,4.4,4.4l0,0
		C241.7,88.3,239.7,90.3,237.3,90.3z"/>
	<path class="st2" d="M312.6,90.3h-4.4c-2.4,0-4.4-2-4.4-4.4l0,0c0-2.4,2-4.4,4.4-4.4h4.4c2.4,0,4.4,2,4.4,4.4l0,0
		C317,88.3,315,90.3,312.6,90.3z"/>
</g>
<path class="st1" d="M95.6,50.4l23.5-20.2c4.8-4.1,11-6.4,17.3-6.4h59.7c6.5,0,12.6,2.8,16.8,7.7l19.9,23.3H128
	c-3.9,0-7.8-0.3-11.7-1L95.6,50.4z"/>
<path class="st6" d="M191.2,31.5c-1.7-2-4.2-3.2-6.8-3.2h-40.9c-2.3,0-4.6,0.9-6.3,2.6L124,44.2c-1.2,1.2-1.8,2.8-1.8,4.4l0,0
	c0,3.5,2.8,6.3,6.3,6.3H206c1.9,0,2.9-2.2,1.7-3.6L191.2,31.5z"/>
<polygon class="st4" points="153.1,54.8 139.8,54.8 148.7,28.3 157.6,28.3 "/>
<path class="st3" d="M307.8,68.1h-4.1c-2.4,0-4.4,2-4.4,4.4s2,4.4,4.4,4.4h8.7C312,73.5,310.4,70.4,307.8,68.1z"/>
<path class="st6" d="M212.9,31.6c-1.1-1.2-2.2-2.3-3.5-3.3h-7.2c-1.9,0-2.9,2.2-1.7,3.6l16.5,19.8c1.7,2,4.2,3.2,6.8,3.2h9.1
	L212.9,31.6z"/>
<path class="st7" d="M60.1,68.1v4.4H69c2.4,0,4.4-2,4.4-4.4c0-2.4-2-4.4-4.4-4.4h-4.4C62.1,63.7,60.1,65.7,60.1,68.1z"/>
</svg>
