<?xml version="1.0" encoding="utf-8"?>
<!-- Generator: Adobe Illustrator 21.1.0, SVG Export Plug-In . SVG Version: 6.00 Build 0)  -->
<svg version="1.1" id="Layer_1" xmlns="http://www.w3.org/2000/svg" xmlns:xlink="http://www.w3.org/1999/xlink" x="0px" y="0px"
	 viewBox="0 0 24 25.8" style="enable-background:new 0 0 24 25.8;" xml:space="preserve">
<style type="text/css">
	.st0{fill:#00D2FF;}
	.st1{fill:#18BDF6;}
	.st2{fill:#EFF2FA;}
	.st3{fill:#E4EAF6;}
	.st4{fill:#FF6464;}
	.st5{fill:#D2555A;}
</style>
<path class="st0" d="M11.5,12.4c-3.4,0-6.2-2.8-6.2-6.2S8.1,0,11.5,0s6.2,2.8,6.2,6.2S14.9,12.4,11.5,12.4z"/>
<path class="st1" d="M14.4,10.4c-3.4,0-6.2-2.8-6.2-6.2c0-1.4,0.5-2.8,1.3-3.8C7,1.2,5.3,3.5,5.3,6.2c0,3.4,2.8,6.2,6.2,6.2
	c2,0,3.8-0.9,4.9-2.4C15.8,10.3,15.1,10.4,14.4,10.4z"/>
<path class="st2" d="M14.9,2.8h1.8c-0.1-0.2-0.2-0.3-0.3-0.5h-1.7c-0.4-0.9-0.9-1.6-1.4-2C12.7,0.1,12.1,0,11.5,0s-1.2,0.1-1.8,0.3
	c-0.6,0.5-1,1.2-1.4,2H6.7C6.6,2.5,6.4,2.6,6.3,2.8h1.8C7.8,3.7,7.6,4.8,7.6,6H5.3c0,0.1,0,0.2,0,0.2c0,0.1,0,0.2,0,0.2h2.3
	c0,1.2,0.2,2.3,0.6,3.2H6.3c0.1,0.2,0.2,0.3,0.3,0.5h1.7c0.4,0.9,0.9,1.6,1.4,2c0.6,0.2,1.1,0.3,1.8,0.3s1.2-0.1,1.8-0.3
	c0.6-0.5,1-1.2,1.4-2h1.7c0.1-0.1,0.2-0.3,0.3-0.5h-1.8c0.3-0.9,0.5-2,0.6-3.2h2.3c0-0.1,0-0.2,0-0.2c0-0.1,0-0.2,0-0.2h-2.3
	C15.4,4.8,15.2,3.7,14.9,2.8z M11.3,12.4c-1-0.1-1.9-1-2.5-2.3h2.5V12.4L11.3,12.4z M11.3,9.7H8.6C8.3,8.8,8.1,7.6,8,6.5h3.2
	L11.3,9.7L11.3,9.7z M11.3,6H8c0-1.2,0.2-2.3,0.6-3.2h2.6L11.3,6L11.3,6z M11.3,2.3H8.8C9.4,1,10.3,0.1,11.3,0V2.3L11.3,2.3z
	 M11.7,0c1,0.1,1.9,1,2.5,2.3h-2.5V0L11.7,0z M11.7,12.4v-2.3h2.5C13.6,11.4,12.7,12.3,11.7,12.4z M14.4,9.7h-2.6V6.5H15
	C14.9,7.6,14.7,8.8,14.4,9.7z M11.7,6V2.8h2.6c0.3,0.9,0.6,2,0.6,3.2H11.7L11.7,6z"/>
<g>
	<path class="st3" d="M12,12.4c0.1,0,0.2,0,0.3,0c0,0,0.1,0,0.1,0c0.1,0,0.2,0,0.3-0.1c0,0,0.1,0,0.1,0c0.1,0,0.2-0.1,0.4-0.1
		c0,0,0,0,0,0c0.5-0.4,1-1.1,1.3-1.8c-0.1,0-0.1,0-0.2,0c-0.1,0-0.2,0-0.3,0c-0.6,1.2-1.4,2-2.3,2.1v-2.3h1c-0.5-0.1-1-0.4-1.5-0.6
		v0.2H8.6C8.3,8.8,8.1,7.6,8,6.5h0.6C8.6,6.3,8.5,6.1,8.5,6H8c0-0.5,0.1-1.1,0.1-1.5c0-0.1,0-0.2,0-0.3C8.2,3,8.5,2,9,1.1
		C8.7,1.5,8.5,1.9,8.3,2.3H6.7c0,0.1-0.1,0.1-0.1,0.2c0,0.1-0.1,0.1-0.1,0.2c0,0-0.1,0.1-0.1,0.1h1.8C7.8,3.7,7.6,4.8,7.6,6H5.3
		c0,0.1,0,0.2,0,0.2c0,0.1,0,0.2,0,0.2h2.3c0,1.2,0.2,2.3,0.6,3.2H6.3l0,0c0.1,0.2,0.2,0.3,0.3,0.5l0,0h1.7c0.4,0.9,0.9,1.6,1.4,2
		c0.1,0,0.3,0.1,0.4,0.1c0,0,0,0,0,0c0.1,0,0.3,0.1,0.4,0.1c0,0,0,0,0,0c0.1,0,0.3,0,0.4,0c0,0,0.1,0,0.1,0c0.1,0,0.3,0,0.4,0
		c0.1,0,0.3,0,0.4,0C12,12.4,12,12.4,12,12.4z M11.3,12.4c-1-0.1-1.9-1-2.5-2.3h2.5V12.4L11.3,12.4z"/>
	<path class="st3" d="M16.4,10c-0.1,0-0.2,0.1-0.4,0.1h0.3C16.4,10.1,16.4,10.1,16.4,10z"/>
</g>
<path class="st4" d="M7,0.7c-1,0-1.7,0.8-1.7,1.7C5.3,4,7,5.2,7,5.2S8.8,4,8.8,2.5C8.8,1.5,8,0.7,7,0.7z M7,3.5c-0.5,0-1-0.4-1-1
	c0-0.5,0.4-1,1-1s1,0.4,1,1C8,3,7.6,3.5,7,3.5z"/>
<path class="st5" d="M6,2.5c0-0.3,0.1-0.5,0.3-0.7c0.1-0.6,0.4-1,0.7-1c-1,0-1.7,0.8-1.7,1.7C5.3,4,7,5.2,7,5.2s-0.5-0.9-0.7-2
	C6.1,3,6,2.8,6,2.5z"/>
<path class="st4" d="M17,3c-1,0-1.7,0.8-1.7,1.7c0,1.5,1.7,2.7,1.7,2.7s1.7-1.2,1.7-2.7C18.7,3.8,17.9,3,17,3z M17,5.7
	c-0.5,0-1-0.4-1-1c0-0.5,0.4-1,1-1s1,0.4,1,1C18,5.3,17.5,5.7,17,5.7z"/>
<path class="st5" d="M16,4.7c0-0.3,0.1-0.5,0.3-0.7c0.1-0.6,0.4-1,0.7-1c-1,0-1.7,0.8-1.7,1.7c0,1.5,1.7,2.7,1.7,2.7s-0.5-0.9-0.7-2
	C16.1,5.3,16,5,16,4.7z"/>
<path class="st4" d="M10.3,6c-1,0-1.7,0.8-1.7,1.7c0,1.5,1.7,2.7,1.7,2.7S12,9.2,12,7.7C12,6.8,11.2,6,10.3,6z M10.3,8.7
	c-0.5,0-1-0.4-1-1c0-0.5,0.4-1,1-1c0.5,0,1,0.4,1,1C11.3,8.3,10.8,8.7,10.3,8.7z"/>
<path class="st5" d="M9.3,7.7c0-0.3,0.1-0.5,0.3-0.7c0.1-0.6,0.4-1,0.7-1c-1,0-1.7,0.8-1.7,1.7c0,1.5,1.7,2.7,1.7,2.7
	s-0.5-0.9-0.7-2C9.4,8.3,9.3,8,9.3,7.7z"/>
</svg>
